<?xml version="1.0" encoding="UTF-8"?>
<svg version="1.1" xmlns="http://www.w3.org/2000/svg" width="512" height="512">
<path d="M0 0 C1.01790619 0.00215515 2.03581238 0.0043103 3.08456421 0.00653076 C17.69363523 0.05620146 32.02575853 0.30709809 46.375 3.3125 C47.34985352 3.51117676 48.32470703 3.70985352 49.32910156 3.91455078 C98.33696698 14.16611774 142.34114199 36.50532652 178.375 71.3125 C178.99584473 71.91143066 179.61668945 72.51036133 180.25634766 73.12744141 C188.15750259 80.79126503 195.70266955 88.53248394 202.375 97.3125 C202.79168945 97.85277832 203.20837891 98.39305664 203.63769531 98.94970703 C228.13584707 130.8187469 244.62689938 167.37064783 252.6875 206.75 C252.83485596 207.46889404 252.98221191 208.18778809 253.1340332 208.9284668 C256.10789088 224.57475609 256.74800362 240.04818046 256.6875 255.9375 C256.68534485 256.95540619 256.6831897 257.97331238 256.68096924 259.02206421 C256.63129854 273.63113523 256.38040191 287.96325853 253.375 302.3125 C253.07698486 303.77478027 253.07698486 303.77478027 252.77294922 305.26660156 C242.52138226 354.27446698 220.18217348 398.27864199 185.375 434.3125 C184.77606934 434.93334473 184.17713867 435.55418945 183.56005859 436.19384766 C175.89623497 444.09500259 168.15501606 451.64016955 159.375 458.3125 C158.83472168 458.72918945 158.29444336 459.14587891 157.73779297 459.57519531 C123.10615677 486.19699135 82.6106052 503.76676591 39.375 510.3125 C38.25689941 510.48982666 37.13879883 510.66715332 35.98681641 510.84985352 C25.22545702 512.39416151 14.5855899 512.65229671 3.72314453 512.62817383 C0.77468385 512.62502635 -2.17275697 512.64852578 -5.12109375 512.67382812 C-18.51105903 512.71844438 -31.42266733 511.51675057 -44.625 509.3125 C-45.76195312 509.12437744 -46.89890625 508.93625488 -48.0703125 508.74243164 C-50.66610846 508.27619865 -53.2376671 507.75746002 -55.8125 507.1875 C-57.20142456 506.88054199 -57.20142456 506.88054199 -58.6184082 506.56738281 C-114.14757064 493.65555169 -166.96198961 460.92501728 -201.625 415.3125 C-202.04168945 414.77222168 -202.45837891 414.23194336 -202.88769531 413.67529297 C-227.38584707 381.8062531 -243.87689938 345.25435217 -251.9375 305.875 C-252.08485596 305.15610596 -252.23221191 304.43721191 -252.3840332 303.6965332 C-255.35789088 288.05024391 -255.99800362 272.57681954 -255.9375 256.6875 C-255.93534485 255.66959381 -255.9331897 254.65168762 -255.93096924 253.60293579 C-255.88129854 238.99386477 -255.63040191 224.66174147 -252.625 210.3125 C-252.42632324 209.33764648 -252.22764648 208.36279297 -252.02294922 207.35839844 C-241.77138226 158.35053302 -219.43217348 114.34635801 -184.625 78.3125 C-184.02606934 77.69165527 -183.42713867 77.07081055 -182.81005859 76.43115234 C-175.14623497 68.52999741 -167.40501606 60.98483045 -158.625 54.3125 C-158.08472168 53.89581055 -157.54444336 53.47912109 -156.98779297 53.04980469 C-125.1187531 28.55165293 -88.56685217 12.06060062 -49.1875 4 C-48.46860596 3.85264404 -47.74971191 3.70528809 -47.0090332 3.5534668 C-31.36274391 0.57960912 -15.88931954 -0.06050362 0 0 Z M-126.625 192.3125 C-122.90945748 196.64729961 -119.35558663 200.70636891 -115.34780884 204.70994568 C-114.85265601 205.20595294 -114.35750317 205.70196019 -113.84734571 206.21299797 C-112.20999615 207.85197688 -110.56913146 209.4873879 -108.92822266 211.12280273 C-107.7448717 212.30587124 -106.56174164 213.48916073 -105.3788147 214.6726532 C-102.18315952 217.86859409 -98.98444082 221.06145251 -95.78514528 224.25374866 C-92.43613264 227.59649024 -89.08997067 230.94208297 -85.74349976 234.28736877 C-79.41332965 240.61443661 -73.08061578 246.938952 -66.74697435 253.26254469 C-59.53338294 260.46494063 -52.32264667 267.67019214 -45.11214375 274.87567985 C-30.28626099 289.69112323 -15.45681282 304.50299339 -0.625 319.3125 C3.21556061 317.72841596 5.64576543 315.29071804 8.5635376 312.37120056 C9.07331579 311.86383678 9.58309398 311.35647301 10.10832 310.83373457 C11.81430649 309.13338139 13.51305408 307.42597712 15.21191406 305.71850586 C16.43374138 304.49775148 17.65600153 303.27743019 18.87866211 302.05751038 C22.19696469 298.74405608 25.50898223 295.42438399 28.81978321 292.10343623 C32.28117544 288.63326752 35.74783151 285.16836477 39.21380615 281.70277405 C45.03104432 275.88459933 50.84439552 270.06256374 56.65527344 264.23803711 C63.38324299 257.49432371 70.11644339 250.75586969 76.85265565 244.02039045 C83.32427079 237.54938454 89.79302933 231.07553137 96.26018524 224.60006905 C99.01699186 221.83972277 101.77465438 219.0802357 104.53296661 216.32139397 C107.77580859 213.07755124 111.01610159 209.83118371 114.25439453 206.58279991 C115.44681842 205.38744289 116.64010246 204.19294324 117.83428192 202.99934006 C119.45664499 201.37746389 121.07592311 199.75257162 122.69439697 198.1268158 C123.60362034 197.21591659 124.5128437 196.30501738 125.44961929 195.36651516 C127.48898204 193.66012409 127.48898204 193.66012409 127.375 192.3125 C43.555 192.3125 -40.265 192.3125 -126.625 192.3125 Z " fill="#000000" transform="translate(255.625,-0.3125)"/>
</svg>
